<svg viewBox="0 0 256 256" xmlns="http://www.w3.org/2000/svg">
  <!-- Blue background -->
  <rect width="256" height="256" fill="#1e3a5f"/>
  
  <!-- Progyny logo - Four leaf clover design -->
  <!-- Top leaf -->
  <path d="M 128 40 Q 108 60 108 85 Q 108 105 128 115 Q 148 105 148 85 Q 148 60 128 40 Z" fill="white"/>
  
  <!-- Right leaf -->
  <path d="M 216 128 Q 196 108 171 108 Q 151 108 141 128 Q 151 148 171 148 Q 196 148 216 128 Z" fill="white"/>
  
  <!-- Bottom leaf -->
  <path d="M 128 216 Q 148 196 148 171 Q 148 151 128 141 Q 108 151 108 171 Q 108 196 128 216 Z" fill="white"/>
  
  <!-- Left leaf -->
  <path d="M 40 128 Q 60 148 85 148 Q 105 148 115 128 Q 105 108 85 108 Q 60 108 40 128 Z" fill="white"/>
  
  <!-- Center droplet -->
  <circle cx="128" cy="128" r="16" fill="white"/>
</svg>